<?xml version="1.0" encoding="UTF-8" standalone="no"?>
<!DOCTYPE svg PUBLIC "-//W3C//DTD SVG 1.1//EN" "http://www.w3.org/Graphics/SVG/1.1/DTD/svg11.dtd">
<svg width="100%" height="100%" viewBox="0 0 606 226" version="1.1" xmlns="http://www.w3.org/2000/svg" xmlns:xlink="http://www.w3.org/1999/xlink" xml:space="preserve" style="fill-rule:evenodd;clip-rule:evenodd;stroke-linejoin:round;stroke-miterlimit:1.41421;">
    <g transform="matrix(1,0,0,1,-10.932,-0.804439)">
        <path d="M432.342,84.183C428.985,85.409 426.471,84.382 424.073,81.39C418.206,74.068 412.564,66.624 405.592,60.154C399.755,54.737 395.227,47.917 390.054,41.772C388.612,40.059 387.096,38.337 385.339,36.975C381.704,34.16 379.694,30.534 378.595,26.124C377.915,23.391 376.548,20.828 375.489,18.189C375.14,18.23 374.792,18.271 374.443,18.312C373.661,22.336 372.792,26.347 372.172,30.397C372.048,31.204 372.702,32.309 373.306,33.011C374.412,34.294 375.918,35.25 376.94,36.585C377.943,37.896 378.928,39.432 379.256,41.007C379.964,44.416 381.093,47.319 384.279,49.238C385.305,49.856 385.827,51.309 386.58,52.38C386.466,52.581 386.352,52.782 386.238,52.983C380.775,51.47 375.314,49.952 369.849,48.447C368.276,48.014 366.577,47.85 365.153,47.131C364.136,46.618 363.134,45.485 362.825,44.425C362.683,43.941 364.17,42.884 365.034,42.244C365.489,41.908 366.189,41.878 366.788,41.765C369.231,41.306 369.376,41.046 367.878,39.06C367.105,38.034 366.174,37.109 365.216,36.246C363.085,34.327 362.242,31.956 362.334,29.13C362.418,26.545 362.476,23.947 362.297,21.372C362.235,20.477 361.429,19.633 360.65,18.184C357.848,21.414 355.278,23.988 353.158,26.891C345.882,36.851 336.854,44.682 326.122,50.791C320.527,53.975 315.365,57.966 310.219,61.872C308.46,63.207 307.25,65.329 305.968,67.213C304.994,68.645 303.951,68.977 301.904,68.019C303.497,65.467 304.754,62.898 306.512,60.738C311.679,54.392 318.047,49.383 324.866,44.913C331.141,40.8 336.335,35.493 341.11,29.775C342.025,28.678 342.414,27.14 343.029,25.84C339.478,23.415 335.825,24.218 333.191,26.856C325.151,34.908 317.059,42.92 308.746,50.689C297.581,61.125 285.209,69.913 271.335,76.43C260.259,81.632 248.644,84.288 236.309,83.489C232.533,83.244 228.721,83.512 224.928,83.612C224.461,83.624 224.005,84.051 223.543,84.286C223.272,84.26 223,84.234 222.729,84.208C222.366,83.793 222.004,83.379 221.641,82.964C222.107,82.628 222.531,82.195 223.045,81.97C228.857,79.433 235.22,79.559 241.287,78.235C247.86,76.801 254.469,75.535 261.053,74.153C268.365,72.618 274.553,68.805 280.42,64.405C285.22,60.806 289.987,57.162 294.708,53.459C299.173,49.958 300.386,44.923 298.108,39.768C297.558,38.524 296.865,37.344 296.308,36.102C292.823,28.336 281.252,28.178 276.625,33.36C269.366,41.491 262.088,49.604 254.764,57.676C252.907,59.722 250.83,61.565 248.89,63.538C248.057,64.385 247.318,65.324 246.536,66.221C246.26,66.004 245.985,65.787 245.709,65.57C247.276,63.319 248.843,61.068 250.41,58.817C250.29,58.674 250.17,58.53 250.05,58.387C247.674,59.503 245.268,60.56 242.93,61.751C240.04,63.223 237.211,64.816 234.343,66.332C234,66.514 233.451,66.748 233.208,66.603C231.754,65.736 230.275,65.88 228.736,66.234C228.486,66.292 228.156,66.006 227.706,65.811C232.565,62.204 237.384,58.862 241.934,55.188C247.444,50.74 252.736,46.019 258.096,41.387C258.644,40.913 259.269,40.293 259.415,39.642C259.612,38.768 259.375,37.797 259.323,36.868C258.578,37.144 257.721,37.267 257.103,37.717C241.48,49.064 225.861,60.417 210.292,71.839C205.558,75.311 200.004,76.743 194.59,78.53C191.95,79.401 189.214,79.981 186.059,80.815C186.339,79.893 186.346,79.426 186.524,79.347C194.833,75.661 202.213,70.54 209.239,64.838C214.109,60.886 218.933,56.848 224.052,53.237C236.312,44.59 247.107,34.137 259.092,25.163C261.275,23.529 263.418,21.838 265.661,20.29C267.645,18.922 269.889,18.434 272.269,19.055C274.38,19.606 276.267,19.214 278.124,18.095C283.377,14.932 288.626,11.759 293.966,8.748C297.719,6.632 300.996,7.846 302.357,11.87C304.138,17.138 305.569,22.524 307.365,27.786C308.279,30.462 309.582,33.02 310.893,35.534C311.19,36.103 312.253,36.273 312.914,36.601C315.438,32.648 319.347,30.377 322.551,27.377C324.686,25.377 327.052,23.621 329.337,21.785C332.12,19.549 335.12,17.817 338.665,16.932C347.21,14.801 354.841,10.555 362.435,6.262C364.57,5.055 366.74,3.908 368.855,2.669C370.902,1.469 373.081,1.036 375.443,0.839C378.162,0.613 380.293,1.499 382.019,3.386C386.641,8.442 390.501,14.066 393.188,20.358C395.268,25.228 396.947,30.282 398.585,35.325C400.734,41.935 404.517,47.55 408.79,52.893C413.517,58.803 418.387,64.601 423.034,70.573C426.075,74.481 428.83,78.613 431.721,82.638C431.916,82.909 432.185,83.126 432.42,83.368C432.394,83.64 432.368,83.911 432.342,84.183Z" style="fill:rgb(85,87,89);fill-rule:nonzero;"/>
        <path d="M102.63,89.83C102.63,87.546 101.978,85.588 100.672,83.956C99.53,82.651 97.409,80.693 94.309,78.409C91.698,72.372 87.619,69.271 81.582,69.108C78.482,69.108 72.608,70.414 63.797,72.861C60.207,68.945 57.76,66.987 56.291,66.987C55.149,66.987 54.66,68.129 54.66,70.25C54.66,71.882 54.333,74.003 53.681,76.614C47.317,78.898 40.138,82.325 32.143,86.893C24.637,91.299 19.579,94.725 16.805,97.173C12.89,100.762 10.932,104.189 10.932,107.289C10.932,108.594 11.258,109.9 11.911,111.205C16.642,120.505 19.906,125.074 21.537,125.074C22.679,125.074 23.332,124.258 23.332,122.79C23.332,122.3 23.169,121.811 23.006,121.321C22.027,119.037 21.537,117.731 21.537,117.242C21.048,116.263 20.885,115.121 20.885,113.979C20.885,106.31 30.838,97.825 50.744,88.851C44.544,113.652 34.917,140.901 22.027,170.76C20.395,171.25 19.579,171.902 19.416,172.718C19.253,173.86 19.906,175.166 21.537,176.634C23.985,179.081 26.106,180.224 27.901,180.224C29.206,180.224 30.348,179.571 31.654,178.429C33.938,176.145 36.875,174.023 40.138,172.229C43.238,170.597 45.523,169.781 46.828,169.944C48.623,170.107 49.602,169.618 49.602,168.149C49.602,167.007 48.949,165.212 47.807,162.928C46.338,160.154 44.707,158.686 43.238,158.36C42.259,158.196 41.117,158.686 39.649,159.502C36.875,161.133 35.243,162.112 34.917,162.275C42.259,143.022 50.417,117.405 59.228,85.425C66.897,82.325 74.892,80.53 83.05,80.04C84.845,79.714 86.477,79.714 88.272,80.04C92.025,81.019 93.493,83.793 92.84,88.199C91.698,96.52 88.272,104.841 82.398,113.326C77.829,120.179 72.934,125.4 67.876,129.316C65.266,131.274 61.676,132.253 56.781,132.253C53.844,132.253 52.375,132.743 52.375,133.885C52.375,134.537 53.028,135.19 54.333,135.68C60.86,138.29 64.939,139.596 66.571,139.596C69.508,139.596 72.445,138.453 75.545,136.332C79.787,133.232 85.008,127.195 90.719,118.384C96.593,109.573 100.183,102.231 101.651,96.52C102.304,93.746 102.63,91.462 102.63,89.83Z" style="fill:rgb(85,87,89);fill-rule:nonzero;"/>
        <path d="M151.893,121.811C151.729,120.995 151.077,120.179 149.935,119.2C146.998,117.079 145.04,115.937 144.387,115.937C143.571,115.937 142.755,117.242 142.103,119.526C141.613,120.995 140.797,123.279 139.329,126.706C137.371,131.437 132.802,138.29 125.949,147.264C119.096,156.075 112.733,163.418 106.696,169.128C104.248,171.576 102.127,172.881 100.332,172.881C99.19,172.881 98.701,172.229 98.701,170.923C98.701,170.597 98.701,170.271 98.864,169.781C100.169,161.296 104.412,151.833 111.428,141.227C117.465,131.927 123.012,125.4 128.071,121.811C130.355,120.179 133.292,120.016 137.045,121.647C137.534,121.811 137.86,121.811 138.35,121.811C139.492,121.811 139.982,121.484 139.982,120.668C139.982,120.179 139.655,119.689 139.329,119.2C133.944,114.305 130.192,111.857 128.397,111.694C126.439,111.694 124.155,112.836 121.707,115.121C113.875,122.3 107.185,131.111 101.148,141.554C95.274,151.996 91.848,161.133 90.869,168.965C90.706,169.618 90.706,170.271 90.706,170.923C90.706,173.86 92.174,176.145 94.948,177.939C96.906,179.408 98.375,180.224 99.353,180.224C100.496,180.224 102.127,179.408 104.412,177.939C107.512,175.818 112.57,170.76 119.586,162.765C127.418,153.791 133.781,145.469 138.35,137.964C135.087,146.938 132.313,158.196 130.029,171.576C129.865,173.371 129.865,174.513 130.029,175.166C130.355,175.818 131.171,176.634 132.639,177.45C134.923,179.245 136.718,180.06 137.534,180.06C138.513,180.06 139.166,178.918 139.655,176.797C141.287,169.292 144.713,161.949 149.608,154.607C150.098,153.954 150.261,153.301 150.261,152.812C150.261,151.996 149.935,151.67 149.119,151.67C148.303,151.67 147.487,152.159 146.671,153.138C146.345,153.301 145.529,154.28 144.224,155.749C142.919,157.381 141.94,158.523 141.124,159.175C142.919,150.038 146.345,138.617 151.24,125.074C151.729,123.442 152.056,122.3 151.893,121.811Z" style="fill:rgb(85,87,89);fill-rule:nonzero;"/>
        <path d="M208.374,114.305C207.721,113.979 206.253,113.652 204.132,113.326C202.5,112.021 201.195,111.368 200.216,111.368C199.074,111.368 197.605,112.51 195.974,114.794C186.673,127.195 178.515,141.39 171.173,157.544C172.315,152.322 174.436,145.143 177.536,136.169C180.799,126.706 183.084,121.321 184.226,119.853C185.368,118.384 185.042,117.242 183.41,116.426C180.473,114.958 178.515,114.142 177.536,114.142C176.231,114.142 174.925,115.284 173.62,117.568C169.215,124.095 165.788,128.827 163.177,131.927C162.688,132.579 162.525,133.069 162.525,133.558C162.525,134.374 163.014,134.701 163.83,134.701C164.646,134.701 165.135,134.374 165.625,133.722C166.767,132.253 169.215,129.316 173.131,125.237C168.236,137.801 163.83,153.465 159.588,171.902C159.098,174.513 159.751,176.145 161.546,177.124C165.135,178.918 167.257,179.897 167.746,179.897C169.051,179.897 170.52,177.124 172.315,171.413C177.699,153.465 186.021,137.311 197.116,122.953C198.584,120.995 199.563,120.016 200.216,120.016C200.705,120.016 200.869,120.505 200.869,121.484C200.869,124.421 200.053,128.337 198.584,133.232C197.932,135.19 198.258,136.659 199.563,137.638C202.011,139.759 203.806,140.901 204.458,140.901C205.437,140.901 206.253,139.922 206.906,137.964C208.7,131.764 209.679,125.074 209.679,118.221C209.679,116.263 209.19,114.958 208.374,114.305Z" style="fill:rgb(85,87,89);fill-rule:nonzero;"/>
        <path d="M266.618,121.811C266.455,120.995 265.802,120.179 264.66,119.2C261.723,117.079 259.765,115.937 259.113,115.937C258.297,115.937 257.481,117.242 256.828,119.526C256.339,120.995 255.523,123.279 254.055,126.706C252.097,131.437 247.528,138.29 240.675,147.264C233.822,156.075 227.459,163.418 221.422,169.128C218.974,171.576 216.853,172.881 215.058,172.881C213.916,172.881 213.426,172.229 213.426,170.923C213.426,170.597 213.426,170.271 213.59,169.781C214.895,161.296 219.137,151.833 226.153,141.227C232.19,131.927 237.738,125.4 242.796,121.811C245.08,120.179 248.017,120.016 251.77,121.647C252.26,121.811 252.586,121.811 253.076,121.811C254.218,121.811 254.707,121.484 254.707,120.668C254.707,120.179 254.381,119.689 254.055,119.2C248.67,114.305 244.917,111.857 243.122,111.694C241.165,111.694 238.88,112.836 236.433,115.121C228.601,122.3 221.911,131.111 215.874,141.554C210,151.996 206.574,161.133 205.595,168.965C205.431,169.618 205.431,170.271 205.431,170.923C205.431,173.86 206.9,176.145 209.674,177.939C211.632,179.408 213.1,180.224 214.079,180.224C215.221,180.224 216.853,179.408 219.137,177.939C222.237,175.818 227.295,170.76 234.312,162.765C242.144,153.791 248.507,145.469 253.076,137.964C249.812,146.938 247.038,158.196 244.754,171.576C244.591,173.371 244.591,174.513 244.754,175.166C245.08,175.818 245.896,176.634 247.365,177.45C249.649,179.245 251.444,180.06 252.26,180.06C253.239,180.06 253.891,178.918 254.381,176.797C256.013,169.292 259.439,161.949 264.334,154.607C264.823,153.954 264.987,153.301 264.987,152.812C264.987,151.996 264.66,151.67 263.844,151.67C263.029,151.67 262.213,152.159 261.397,153.138C261.071,153.301 260.255,154.28 258.949,155.749C257.644,157.381 256.665,158.523 255.849,159.175C257.644,150.038 261.071,138.617 265.966,125.074C266.455,123.442 266.781,122.3 266.618,121.811Z" style="fill:rgb(85,87,89);fill-rule:nonzero;"/>
        <path d="M371.233,150.854C371.233,150.038 370.907,149.549 370.091,149.549C369.112,149.549 368.296,150.038 367.643,151.18C366.175,153.465 364.054,156.238 361.443,159.339C366.338,147.427 369.112,135.027 369.764,122.3C369.928,117.895 367.97,115.284 363.89,114.631C361.443,112.51 359.485,111.531 358.017,111.531C356.711,111.531 355.569,112.021 354.427,113.163C345.942,120.995 336.479,133.232 326.036,149.549C328.647,141.227 329.789,131.6 329.789,120.668C329.789,118.71 329.463,117.242 328.647,116.263C327.994,115.447 326.526,114.631 324.405,113.652C322.12,112.184 320.325,111.531 319.346,111.531C318.204,111.531 317.062,112.021 316.083,113C307.925,120.179 299.277,132.253 289.814,149.059C292.587,140.248 294.545,130.621 296.014,120.342C296.014,119.853 296.177,119.363 296.177,119.037C296.177,117.568 295.688,116.589 294.545,115.937C293.24,115.61 291.772,115.121 290.466,114.631C288.835,112.836 287.692,112.021 287.04,112.021C286.224,112.021 285.245,112.836 284.266,114.305C281.329,118.384 278.392,122.137 275.292,125.237C274.802,125.727 274.476,126.542 274.476,127.358C274.476,128.5 274.802,128.99 275.618,128.99C276.271,128.99 276.76,128.663 277.576,128.011C278.392,127.032 279.861,125.563 281.818,123.769C283.776,121.974 285.082,120.668 285.898,119.853C286.387,125.727 284.919,135.19 281.818,148.08C279.045,159.339 276.597,167.334 274.476,171.902C273.334,173.208 272.681,174.023 272.681,174.676C272.681,175.166 273.171,175.655 273.987,176.145C277.25,178.592 279.371,179.734 280.513,179.734C281.329,179.734 282.308,178.429 283.124,175.981C286.387,166.191 291.445,155.749 298.135,144.654C304.988,132.906 311.351,124.748 317.062,119.853C318.041,119.037 318.857,118.547 319.673,118.547C320.489,118.547 320.978,119.363 320.978,120.995C320.978,137.311 317.552,154.117 310.699,171.576C309.883,173.534 309.393,174.676 309.393,174.676C309.393,175.329 309.883,175.981 310.699,176.471C312.33,177.776 313.962,178.592 315.92,179.245C317.062,179.734 317.878,179.734 318.204,179.734C318.367,179.571 318.694,178.755 319.183,177.45C322.61,166.355 328.81,154.444 337.458,141.717C344.637,131.111 350.348,124.095 354.916,120.342C356.222,119.363 357.201,118.874 358.18,118.874C359.485,118.874 360.138,119.853 360.138,121.647C360.301,127.358 358.832,135.353 356.059,145.959C353.122,156.402 349.695,166.355 345.616,175.655C345.127,176.797 344.963,177.613 344.963,178.266C344.963,179.245 346.758,180.224 350.511,181.366C352.306,181.855 353.285,182.018 353.774,181.855C353.937,181.692 354.427,181.039 355.08,179.897C361.933,167.007 366.991,157.87 370.58,152.812C371.07,151.996 371.233,151.343 371.233,150.854Z" style="fill:rgb(85,87,89);fill-rule:nonzero;"/>
        <path d="M427.699,119.689C425.088,115.773 422.804,113.815 420.683,113.815C419.867,113.815 418.562,114.142 416.767,114.631C413.34,116.1 411.056,117.079 409.914,117.731C405.835,113.979 402.898,112.184 401.103,112.184C399.798,112.184 398.166,113.326 396.045,115.61C391.639,120.505 387.397,128.337 383.481,139.432C379.728,149.549 377.77,157.381 377.607,162.928C377.444,167.823 378.913,171.739 382.339,174.839C385.602,177.613 389.518,179.245 394.576,179.571C397.024,180.224 399.145,180.55 400.777,180.55C404.856,180.55 408.609,178.755 411.872,175.166C418.235,168.313 423.13,158.686 426.557,146.448C428.678,138.617 429.82,132.416 429.983,127.685C430.146,124.748 429.331,121.974 427.699,119.689ZM413.993,155.423C410.077,164.56 405.998,170.597 401.429,173.534C399.145,175.166 397.024,175.981 394.903,175.981C389.845,176.145 387.397,172.229 387.397,164.07C387.397,161.623 387.723,158.849 388.213,155.912C389.029,151.507 390.497,146.448 392.618,140.901C395.229,133.722 398.003,128.337 401.103,124.584C401.593,125.563 401.919,126.053 402.408,126.053C402.572,126.053 403.387,125.727 404.856,125.237L417.256,120.179C418.072,120.016 418.725,119.853 419.214,119.853C420.683,119.853 421.335,120.995 421.335,123.279C421.335,124.095 421.172,126.379 420.846,129.969C419.867,138.453 417.583,146.938 413.993,155.423Z" style="fill:rgb(85,87,89);fill-rule:nonzero;"/>
        <path d="M497.23,119.363C497.557,119.2 497.72,118.874 497.72,118.71C497.72,118.221 496.578,117.405 494.457,116.263C492.336,115.121 491.03,114.631 490.214,114.631C489.562,114.631 488.583,114.958 487.767,115.61C486.135,116.589 484.34,119.689 481.893,125.074C480.424,128.337 476.345,135.353 469.492,145.959C461.66,158.196 455.787,166.355 451.707,170.76C449.749,172.718 448.444,173.697 447.628,173.697C446.649,173.697 446.16,172.555 446.16,170.271C446.16,163.254 447.791,154.28 451.055,143.185C453.992,133.069 456.766,125.89 459.376,121.811L461.171,119.2C461.171,118.71 460.845,118.221 460.029,117.731C457.255,116.1 455.134,115.284 453.829,115.284C452.686,115.284 451.707,115.937 450.728,117.079C448.934,119.363 447.302,122.463 445.67,126.706C445.018,128.011 443.386,130.785 440.449,134.864C439.96,135.843 439.796,136.495 440.286,136.822C440.612,136.985 441.265,136.822 441.918,136.332C443.712,134.701 445.018,133.395 445.997,132.579C441.754,142.533 438.981,155.259 437.675,170.434C437.512,171.086 437.512,171.739 437.512,172.392C437.512,175.492 439.307,177.45 443.06,178.102C445.018,179.245 446.812,179.897 448.281,179.897C450.076,179.897 451.707,179.081 453.339,177.287C460.192,169.292 468.84,157.054 479.119,140.411C476.019,148.896 473.408,159.012 471.124,170.597C470.635,173.534 471.124,175.655 472.756,176.797C475.856,178.918 477.977,179.897 478.956,179.897C480.098,179.897 480.914,178.592 481.567,175.981C482.546,171.739 484.83,165.702 488.256,158.033C488.42,157.544 488.42,157.217 488.42,156.891C488.42,155.912 488.093,155.423 487.277,155.423C486.625,155.423 486.298,155.749 485.972,156.565C483.851,160.644 482.056,163.907 480.588,166.518C484.014,148.896 489.399,133.395 496.415,120.342C496.578,120.016 496.741,119.689 497.23,119.363Z" style="fill:rgb(85,87,89);fill-rule:nonzero;"/>
        <path d="M561.023,148.733C561.023,147.754 560.697,147.264 559.881,147.264C559.391,147.264 559.065,147.591 558.576,148.08C556.128,151.18 554.17,153.791 552.702,155.749C554.007,151.996 555.312,146.612 556.618,139.922C558.412,131.6 559.391,125.727 559.391,121.974C559.391,118.384 557.27,115.773 552.865,114.305C551.233,113.163 550.091,112.51 549.438,112.51C548.786,112.51 547.643,112.836 546.012,113.652C542.585,115.121 537.527,120.179 530.838,128.663C523.985,137.148 518.926,144.817 515.337,151.67C520.721,136.495 523.658,125.89 524.311,120.016C524.474,117.405 522.516,115.447 518.274,114.142C517.295,112.347 516.153,111.368 514.847,111.368C514.031,111.368 513.216,111.857 512.4,112.673C508.647,117.079 505.71,120.668 503.426,123.605C502.936,124.095 502.61,124.584 502.61,125.074C502.61,125.563 502.936,125.89 503.752,125.89C504.242,125.89 504.894,125.727 505.384,125.237C507.831,122.953 509.952,121.158 511.258,119.689C512.726,118.221 513.542,117.568 513.542,117.568C513.705,117.568 513.868,118.547 513.705,120.505C513.216,126.706 511.421,135.353 508.158,146.612C505.221,156.891 502.12,165.539 499.02,172.229C498.531,173.534 498.204,174.187 498.204,174.513C498.204,174.839 498.857,175.329 499.836,175.818C502.61,177.124 504.568,177.776 505.71,177.776C507.342,177.776 508.81,176.471 509.952,173.697C519.742,151.833 531.327,134.374 544.707,121.321C546.175,120.016 547.154,119.363 547.807,119.363C548.786,119.363 549.275,120.505 549.438,122.79C549.928,128.663 548.622,136.985 545.686,148.08C542.912,158.523 539.975,167.17 536.385,174.187C535.732,175.492 535.406,176.308 535.406,176.634C535.406,177.45 536.385,178.266 538.506,179.245C540.301,180.06 541.77,180.387 542.749,180.387C543.891,180.387 544.87,179.571 545.686,177.939C546.501,175.492 547.48,173.208 548.459,170.76C553.517,161.623 557.76,154.607 560.86,149.712C561.023,149.385 561.023,149.059 561.023,148.733Z" style="fill:rgb(85,87,89);fill-rule:nonzero;"/>
        <path d="M605.065,73.187C602.944,73.187 600.986,74.656 599.191,77.593C595.928,82.814 591.522,94.236 585.811,111.857C584.18,112.836 582.548,113.652 580.753,114.305C577.816,115.121 575.858,115.773 574.879,116.1C573.737,116.263 573.248,117.079 573.248,118.221C573.248,119.363 573.737,120.016 574.716,120.179C577.001,120.505 579.611,120.995 582.385,121.321C576.674,141.39 572.758,158.196 570.8,171.902C570.637,172.392 570.637,172.718 570.637,173.208C570.637,175.492 572.106,177.124 575.206,177.939C577.653,179.734 579.448,180.713 580.59,180.713C581.732,180.713 583.201,179.897 584.996,178.266C589.075,174.187 593.317,169.455 597.559,163.744C598.212,162.928 598.538,162.112 598.375,161.46C598.212,160.97 597.722,160.644 597.07,160.644C596.254,160.644 595.438,161.133 594.622,161.949C587.443,168.965 583.038,172.392 581.569,172.392C580.753,172.392 580.264,171.413 580.264,169.618C580.264,169.128 580.264,168.476 580.264,167.823C581.732,154.933 585.648,139.106 592.012,120.505C602.617,119.689 608.491,119.2 609.47,119.037C610.939,118.71 611.592,118.058 611.592,116.916C611.592,115.121 610.613,114.305 608.818,114.468C603.596,114.958 599.517,115.121 596.417,114.794C595.112,114.794 594.459,114.631 594.296,114.142C594.133,113.979 594.296,113.326 594.786,112.184C599.354,98.967 602.781,90.483 605.391,86.567C608.165,82.161 610.613,79.877 612.734,79.877C612.897,79.877 613.223,79.877 613.713,79.877C614.039,80.04 614.365,80.04 614.692,80.04C615.671,80.04 616.16,79.714 616.16,79.061C616.16,78.082 615.344,77.103 613.876,76.288C610.123,74.166 607.186,73.187 605.065,73.187Z" style="fill:rgb(85,87,89);fill-rule:nonzero;"/>
        <path d="M168.118,201.876L168.118,194.445L167.104,194.445C167.104,194.839 166.935,195.176 166.654,195.402C166.316,195.683 165.753,195.796 164.965,195.796L139.294,195.796L139.294,196.809C139.575,196.809 139.801,196.865 140.026,197.034C140.195,197.203 140.307,197.485 140.307,197.822L140.307,223.381C140.307,223.719 140.195,223.944 140.026,224.113C139.801,224.282 139.575,224.394 139.294,224.394L139.294,225.407L165.528,225.407C166.091,225.407 166.541,225.464 166.935,225.52C167.273,225.576 167.442,225.914 167.442,226.477L168.455,226.477L168.455,218.765L167.442,218.765C167.442,219.215 167.273,219.553 166.935,219.834C166.541,220.116 166.091,220.228 165.528,220.228L146.725,220.228L146.725,212.459L157.759,212.459C158.491,212.459 159.11,212.572 159.504,212.797C159.898,213.079 160.124,213.642 160.124,214.486L161.137,214.486L161.137,205.704L160.124,205.704C160.124,206.548 159.898,207.111 159.504,207.28C159.11,207.505 158.491,207.618 157.759,207.618L146.725,207.618L146.725,200.637L164.965,200.637C165.753,200.637 166.316,200.75 166.654,200.919C166.935,201.144 167.104,201.482 167.104,201.876L168.118,201.876Z" style="fill:rgb(85,87,89);fill-rule:nonzero;"/>
        <path d="M176.562,225.408L183.486,225.408L183.486,224.394C182.698,224.394 182.304,224.113 182.304,223.55L182.304,207.168L196.266,222.03C196.716,222.536 197.11,222.93 197.504,223.325C197.842,223.719 198.011,223.944 198.011,224.113C198.011,224.282 197.898,224.394 197.617,224.394L197.617,225.408L204.935,225.408L204.935,224.394C204.26,224.394 203.922,224.113 203.922,223.55L203.922,202.495C203.922,201.932 204.26,201.65 204.935,201.65L204.935,200.637L198.067,200.637L198.067,201.65C198.799,201.65 199.193,201.932 199.193,202.495L199.193,217.751L185.682,203.452C184.837,202.608 184.443,202.101 184.443,201.932C184.443,201.763 184.556,201.707 184.837,201.65L184.837,200.637L176.562,200.637L176.562,201.65C177.237,201.65 177.575,201.932 177.575,202.495L177.575,223.55C177.575,224.113 177.237,224.394 176.562,224.394L176.562,225.408Z" style="fill:rgb(85,87,89);fill-rule:nonzero;"/>
        <path d="M220.078,225.408L227.34,225.408L227.34,224.394C226.665,224.394 226.327,224.113 226.327,223.55L226.327,204.803L233.645,204.803C233.927,204.803 234.208,204.859 234.49,205.028C234.771,205.197 234.884,205.422 234.884,205.76L235.897,205.76L235.897,199.286L234.884,199.286C234.884,199.793 234.771,200.187 234.49,200.356C234.208,200.525 233.927,200.637 233.645,200.637L213.604,200.637C213.322,200.637 213.041,200.525 212.76,200.356C212.478,200.187 212.365,199.793 212.365,199.286L211.352,199.286L211.352,205.76L212.365,205.76C212.365,205.422 212.478,205.197 212.76,205.028C213.041,204.859 213.322,204.803 213.604,204.803L220.922,204.803L220.922,223.55C220.922,223.831 220.81,224.056 220.641,224.169C220.472,224.338 220.247,224.394 220.078,224.394L220.078,225.408Z" style="fill:rgb(85,87,89);fill-rule:nonzero;"/>
        <path d="M265.059,205.873L265.059,199.624L264.046,199.624C264.046,200.299 263.483,200.637 262.301,200.637L242.315,200.637L242.315,201.651C242.484,201.651 242.709,201.707 242.878,201.819C243.047,201.988 243.16,202.213 243.16,202.495L243.16,223.55C243.16,223.831 243.047,224.056 242.878,224.169C242.709,224.338 242.484,224.394 242.315,224.394L242.315,225.408L262.976,225.408C263.426,225.408 263.821,225.408 264.102,225.464C264.383,225.52 264.552,225.689 264.552,226.027L265.566,226.027L265.566,220.116L264.552,220.116C264.552,220.453 264.383,220.735 264.102,220.904C263.821,221.129 263.426,221.242 262.976,221.242L248.564,221.242L248.564,214.599L256.783,214.599C257.515,214.599 258.135,214.655 258.529,214.711C258.923,214.824 259.092,215.105 258.979,215.499L260.105,215.499L260.105,209.532L259.092,209.532C259.092,209.926 258.923,210.208 258.641,210.264C258.36,210.376 257.853,210.433 257.234,210.433L248.564,210.433L248.564,204.803L262.301,204.803C263.483,204.803 264.046,205.141 264.046,205.873L265.059,205.873Z" style="fill:rgb(85,87,89);fill-rule:nonzero;"/>
        <path d="M279.921,211.333L279.921,204.803L288.816,204.803C290.73,204.803 292.138,205.085 293.038,205.591C293.883,206.154 294.333,206.886 294.333,207.843C294.333,210.151 292.475,211.333 288.816,211.333L279.921,211.333ZM273.391,200.637L273.391,201.651C274.067,201.651 274.404,201.932 274.404,202.495L274.404,223.55C274.404,224.113 274.067,224.394 273.391,224.394L273.391,225.408L280.878,225.408L280.878,224.394C280.653,224.394 280.428,224.338 280.203,224.169C279.921,224.056 279.809,223.831 279.809,223.55L279.809,215.499L287.634,215.499L292.081,222.142C292.644,222.931 292.926,223.493 292.926,223.888C292.926,224.225 292.701,224.394 292.194,224.394L292.194,225.408L300.807,225.408L300.807,224.394C300.413,224.282 300.019,224.113 299.681,223.888C299.287,223.719 298.949,223.381 298.668,222.987L293.151,214.936C293.939,214.768 294.727,214.486 295.459,214.092C296.191,213.754 296.923,213.304 297.542,212.685C298.161,212.122 298.612,211.446 299.006,210.658C299.4,209.87 299.569,208.969 299.569,207.956C299.569,205.31 298.612,203.396 296.754,202.27C294.896,201.2 292.25,200.637 288.929,200.637L273.391,200.637Z" style="fill:rgb(85,87,89);fill-rule:nonzero;"/>
        <path d="M313.98,210.939L313.98,204.803L323.438,204.803C324.507,204.803 325.465,205.028 326.196,205.479C326.928,205.985 327.266,206.774 327.266,207.956C327.266,209.138 326.928,209.926 326.196,210.32C325.465,210.714 324.507,210.939 323.438,210.939L313.98,210.939ZM308.576,223.55C308.576,224.113 308.125,224.394 307.168,224.394L307.168,225.408L315.162,225.408L315.162,224.394C314.374,224.394 313.98,224.113 313.98,223.55L313.98,215.105L323.55,215.105C326.59,215.105 328.899,214.599 330.419,213.529C331.939,212.516 332.67,210.658 332.67,207.956C332.67,205.254 331.939,203.339 330.419,202.27C328.899,201.2 326.59,200.637 323.55,200.637L307.168,200.637L307.168,201.651C308.125,201.651 308.576,201.932 308.576,202.495L308.576,223.55Z" style="fill:rgb(85,87,89);fill-rule:nonzero;"/>
        <path d="M345.619,211.334L345.619,204.803L354.513,204.803C356.428,204.803 357.835,205.085 358.736,205.591C359.58,206.154 360.031,206.886 360.031,207.843C360.031,210.151 358.173,211.334 354.513,211.334L345.619,211.334ZM339.088,200.637L339.088,201.651C339.764,201.651 340.102,201.932 340.102,202.495L340.102,223.55C340.102,224.113 339.764,224.394 339.088,224.394L339.088,225.408L346.576,225.408L346.576,224.394C346.351,224.394 346.125,224.338 345.9,224.169C345.619,224.056 345.506,223.831 345.506,223.55L345.506,215.499L353.331,215.499L357.779,222.142C358.342,222.931 358.623,223.494 358.623,223.888C358.623,224.225 358.398,224.394 357.891,224.394L357.891,225.408L366.505,225.408L366.505,224.394C366.111,224.282 365.716,224.113 365.379,223.888C364.985,223.719 364.647,223.381 364.365,222.987L358.848,214.936C359.636,214.768 360.425,214.486 361.156,214.092C361.888,213.754 362.62,213.304 363.239,212.685C363.859,212.122 364.309,211.446 364.703,210.658C365.097,209.87 365.266,208.969 365.266,207.956C365.266,205.31 364.309,203.396 362.451,202.27C360.593,201.2 357.948,200.637 354.626,200.637L339.088,200.637Z" style="fill:rgb(85,87,89);fill-rule:nonzero;"/>
        <path d="M374.16,225.408L382.717,225.408L382.717,224.394C381.648,224.394 381.141,224.113 381.141,223.55L381.141,202.495C381.141,201.932 381.648,201.651 382.717,201.651L382.717,200.637L374.16,200.637L374.16,201.651C374.78,201.651 375.174,201.707 375.399,201.819C375.624,201.988 375.737,202.214 375.737,202.495L375.737,223.55C375.737,223.831 375.624,224.056 375.399,224.169C375.174,224.338 374.78,224.394 374.16,224.394L374.16,225.408Z" style="fill:rgb(85,87,89);fill-rule:nonzero;"/>
        <path d="M393.019,216.513L390.429,222.818L391.218,223.381C391.386,223.156 391.612,223.043 391.893,223.043C392.062,223.043 392.456,223.156 393.188,223.437C393.92,223.719 394.764,224.057 395.834,224.338C396.847,224.676 397.973,224.957 399.268,225.182C400.506,225.464 401.745,225.577 403.04,225.577C404.335,225.577 405.686,225.464 407.149,225.295C408.557,225.126 409.908,224.732 411.09,224.113C412.272,223.494 413.286,222.705 414.13,221.636C414.918,220.566 415.312,219.215 415.312,217.582C415.312,215.95 414.862,214.655 413.961,213.698C413.004,212.741 411.878,212.065 410.471,211.559C409.064,211.052 407.6,210.714 405.967,210.489C404.335,210.32 402.871,210.095 401.464,209.87C400.056,209.701 398.93,209.419 398.029,209.025C397.072,208.688 396.622,208.125 396.622,207.28C396.622,206.774 396.791,206.323 397.072,205.929C397.354,205.591 397.804,205.31 398.311,205.085C398.818,204.859 399.437,204.691 400.112,204.578C400.788,204.522 401.52,204.465 402.252,204.465C404.222,204.465 405.967,204.691 407.544,205.141C409.12,205.591 410.302,206.154 411.034,206.774C411.315,206.999 411.484,207.224 411.541,207.449C411.597,207.674 411.597,207.899 411.653,208.125L412.666,208.462L415.481,203.171L414.862,202.551C414.637,202.664 414.468,202.777 414.299,202.833C414.13,202.945 413.905,203.002 413.624,203.002C413.342,203.002 412.948,202.833 412.441,202.551C411.878,202.27 411.146,201.988 410.302,201.651C409.458,201.313 408.388,200.975 407.149,200.694C405.855,200.412 404.335,200.299 402.589,200.299C398.986,200.299 396.172,201.031 394.201,202.439C392.231,203.846 391.218,205.76 391.218,208.181C391.218,209.814 391.668,211.052 392.625,211.897C393.526,212.797 394.652,213.473 396.059,213.923C397.466,214.43 398.93,214.768 400.563,214.937C402.195,215.162 403.659,215.387 405.066,215.556C406.474,215.781 407.6,216.062 408.557,216.457C409.458,216.851 409.908,217.414 409.908,218.258C409.908,218.99 409.626,219.553 409.12,219.947C408.613,220.397 407.938,220.735 407.206,220.96C406.474,221.242 405.686,221.411 404.954,221.467C404.166,221.523 403.49,221.579 402.984,221.579C402.421,221.579 401.632,221.467 400.675,221.298C399.662,221.129 398.649,220.848 397.692,220.51C396.678,220.228 395.834,219.834 395.102,219.328C394.37,218.877 394.032,218.371 394.032,217.808C394.032,217.639 394.032,217.414 394.089,217.245C394.089,217.076 394.089,216.963 394.089,216.794L393.019,216.513Z" style="fill:rgb(85,87,89);fill-rule:nonzero;"/>
        <path d="M446.501,205.873L446.501,199.624L445.487,199.624C445.487,200.299 444.924,200.637 443.742,200.637L423.757,200.637L423.757,201.651C423.926,201.651 424.151,201.707 424.32,201.819C424.489,201.988 424.601,202.214 424.601,202.495L424.601,223.55C424.601,223.831 424.489,224.057 424.32,224.169C424.151,224.338 423.926,224.394 423.757,224.394L423.757,225.408L444.418,225.408C444.868,225.408 445.262,225.408 445.544,225.464C445.825,225.52 445.994,225.689 445.994,226.027L447.007,226.027L447.007,220.116L445.994,220.116C445.994,220.454 445.825,220.735 445.544,220.904C445.262,221.129 444.868,221.242 444.418,221.242L430.006,221.242L430.006,214.599L438.225,214.599C438.957,214.599 439.576,214.655 439.97,214.711C440.364,214.824 440.533,215.105 440.421,215.499L441.547,215.499L441.547,209.532L440.533,209.532C440.533,209.926 440.364,210.208 440.083,210.264C439.801,210.377 439.295,210.433 438.675,210.433L430.006,210.433L430.006,204.803L443.742,204.803C444.924,204.803 445.487,205.141 445.487,205.873L446.501,205.873Z" style="fill:rgb(85,87,89);fill-rule:nonzero;"/>
        <path d="M455.686,216.401L453.064,222.785L453.862,223.355C454.033,223.127 454.261,223.013 454.546,223.013C454.717,223.013 455.116,223.127 455.857,223.412C456.598,223.697 457.453,224.039 458.536,224.324C459.562,224.666 460.702,224.951 462.013,225.179C463.267,225.464 464.521,225.578 465.832,225.578C467.143,225.578 468.511,225.464 469.993,225.293C471.418,225.122 472.786,224.723 473.983,224.096C475.18,223.469 476.206,222.671 477.061,221.588C477.859,220.505 478.258,219.137 478.258,217.484C478.258,215.831 477.802,214.52 476.89,213.551C475.921,212.582 474.781,211.898 473.356,211.385C471.931,210.872 470.449,210.53 468.796,210.302C467.143,210.131 465.661,209.903 464.236,209.675C462.811,209.504 461.671,209.219 460.759,208.82C459.79,208.478 459.334,207.908 459.334,207.053C459.334,206.54 459.505,206.084 459.79,205.685C460.075,205.343 460.531,205.058 461.044,204.83C461.557,204.602 462.184,204.431 462.868,204.317C463.552,204.26 464.293,204.203 465.034,204.203C467.029,204.203 468.796,204.431 470.392,204.887C471.988,205.343 473.185,205.913 473.926,206.54C474.211,206.768 474.382,206.996 474.439,207.224C474.496,207.452 474.496,207.68 474.553,207.908L475.579,208.25L478.429,202.892L477.802,202.265C477.574,202.379 477.403,202.493 477.232,202.55C477.061,202.664 476.833,202.721 476.548,202.721C476.263,202.721 475.864,202.55 475.351,202.265C474.781,201.98 474.04,201.695 473.185,201.353C472.33,201.011 471.247,200.669 469.993,200.384C468.682,200.099 467.143,199.985 465.376,199.985C461.728,199.985 458.878,200.726 456.883,202.151C454.888,203.576 453.862,205.514 453.862,207.965C453.862,209.618 454.318,210.872 455.287,211.727C456.199,212.639 457.339,213.323 458.764,213.779C460.189,214.292 461.671,214.634 463.324,214.805C464.977,215.033 466.459,215.261 467.884,215.432C469.309,215.66 470.449,215.945 471.418,216.344C472.33,216.743 472.786,217.313 472.786,218.168C472.786,218.909 472.501,219.479 471.988,219.878C471.475,220.334 470.791,220.676 470.05,220.904C469.309,221.189 468.511,221.36 467.77,221.417C466.972,221.474 466.288,221.531 465.775,221.531C465.205,221.531 464.407,221.417 463.438,221.246C462.412,221.075 461.386,220.79 460.417,220.448C459.391,220.163 458.536,219.764 457.795,219.251C457.054,218.795 456.712,218.282 456.712,217.712C456.712,217.541 456.712,217.313 456.769,217.142C456.769,216.971 456.769,216.857 456.769,216.686L455.686,216.401Z" style="fill:rgb(85,87,89);fill-rule:nonzero;"/>
        <path d="M504.724,211.781L579.736,209.85L504.861,214.778L504.724,211.781Z" style="fill:rgb(85,87,89);fill-rule:nonzero;"/>
        <path d="M111.3,214.778L36.424,209.85L111.437,211.781L111.3,214.778Z" style="fill:rgb(85,87,89);fill-rule:nonzero;"/>
    </g>
</svg>
